<svg xmlns="http://www.w3.org/2000/svg" xmlns:xlink="http://www.w3.org/1999/xlink" width="100" zoomAndPan="magnify" viewBox="0 0 75 30.000001" height="40" preserveAspectRatio="xMidYMid meet" version="1.0"><defs><g/><clipPath id="31bbc7f506"><path d="M 16 3 L 39 3 L 39 15 L 16 15 Z M 16 3 " clip-rule="nonzero"/></clipPath><clipPath id="e935b40610"><path d="M 15.527344 5.738281 L 35.378906 -2.140625 L 40.566406 10.929688 L 20.710938 18.808594 Z M 15.527344 5.738281 " clip-rule="nonzero"/></clipPath><clipPath id="7a182b952c"><path d="M 15.527344 5.738281 L 35.378906 -2.140625 L 40.566406 10.929688 L 20.710938 18.808594 Z M 15.527344 5.738281 " clip-rule="nonzero"/></clipPath><clipPath id="f3bccead9f"><path d="M 17 3 L 38 3 L 38 15 L 17 15 Z M 17 3 " clip-rule="nonzero"/></clipPath><clipPath id="bcc7fc2e2b"><path d="M 15.527344 5.738281 L 35.378906 -2.140625 L 40.566406 10.929688 L 20.710938 18.808594 Z M 15.527344 5.738281 " clip-rule="nonzero"/></clipPath><clipPath id="2455b2e5cc"><path d="M 15.527344 5.738281 L 35.378906 -2.140625 L 40.566406 10.929688 L 20.710938 18.808594 Z M 15.527344 5.738281 " clip-rule="nonzero"/></clipPath><clipPath id="359ffd2423"><path d="M 18 8 L 22 8 L 22 11 L 18 11 Z M 18 8 " clip-rule="nonzero"/></clipPath><clipPath id="8357c94a75"><path d="M 15.527344 5.738281 L 35.378906 -2.140625 L 40.566406 10.929688 L 20.710938 18.808594 Z M 15.527344 5.738281 " clip-rule="nonzero"/></clipPath><clipPath id="cc881c5259"><path d="M 15.527344 5.738281 L 35.378906 -2.140625 L 40.566406 10.929688 L 20.710938 18.808594 Z M 15.527344 5.738281 " clip-rule="nonzero"/></clipPath><clipPath id="c23a6d5263"><path d="M 26 4 L 31 4 L 31 7 L 26 7 Z M 26 4 " clip-rule="nonzero"/></clipPath><clipPath id="39969b8ac2"><path d="M 15.527344 5.738281 L 35.378906 -2.140625 L 40.566406 10.929688 L 20.710938 18.808594 Z M 15.527344 5.738281 " clip-rule="nonzero"/></clipPath><clipPath id="192e8de6cb"><path d="M 15.527344 5.738281 L 35.378906 -2.140625 L 40.566406 10.929688 L 20.710938 18.808594 Z M 15.527344 5.738281 " clip-rule="nonzero"/></clipPath><clipPath id="7b4de7a6e9"><path d="M 24 6 L 37 6 L 37 14 L 24 14 Z M 24 6 " clip-rule="nonzero"/></clipPath><clipPath id="d115d6e4c6"><path d="M 15.527344 5.738281 L 35.378906 -2.140625 L 40.566406 10.929688 L 20.710938 18.808594 Z M 15.527344 5.738281 " clip-rule="nonzero"/></clipPath><clipPath id="7c96814a30"><path d="M 15.527344 5.738281 L 35.378906 -2.140625 L 40.566406 10.929688 L 20.710938 18.808594 Z M 15.527344 5.738281 " clip-rule="nonzero"/></clipPath><clipPath id="09f829d674"><path d="M 23 5 L 29 5 L 29 7 L 23 7 Z M 23 5 " clip-rule="nonzero"/></clipPath><clipPath id="4d762d3f15"><path d="M 15.527344 5.738281 L 35.378906 -2.140625 L 40.566406 10.929688 L 20.710938 18.808594 Z M 15.527344 5.738281 " clip-rule="nonzero"/></clipPath><clipPath id="a41b1f3638"><path d="M 15.527344 5.738281 L 35.378906 -2.140625 L 40.566406 10.929688 L 20.710938 18.808594 Z M 15.527344 5.738281 " clip-rule="nonzero"/></clipPath><clipPath id="d89b8f8aa3"><path d="M 32 9 L 33 9 L 33 12 L 32 12 Z M 32 9 " clip-rule="nonzero"/></clipPath><clipPath id="f1b9475cb4"><path d="M 15.527344 5.738281 L 35.378906 -2.140625 L 40.566406 10.929688 L 20.710938 18.808594 Z M 15.527344 5.738281 " clip-rule="nonzero"/></clipPath><clipPath id="59e83c990e"><path d="M 15.527344 5.738281 L 35.378906 -2.140625 L 40.566406 10.929688 L 20.710938 18.808594 Z M 15.527344 5.738281 " clip-rule="nonzero"/></clipPath><clipPath id="19e143e640"><path d="M 27 8 L 35 8 L 35 11 L 27 11 Z M 27 8 " clip-rule="nonzero"/></clipPath><clipPath id="7ebd93e4f4"><path d="M 15.527344 5.738281 L 35.378906 -2.140625 L 40.566406 10.929688 L 20.710938 18.808594 Z M 15.527344 5.738281 " clip-rule="nonzero"/></clipPath><clipPath id="94276e0851"><path d="M 15.527344 5.738281 L 35.378906 -2.140625 L 40.566406 10.929688 L 20.710938 18.808594 Z M 15.527344 5.738281 " clip-rule="nonzero"/></clipPath><clipPath id="ebbeee7951"><path d="M 23 9 L 29 9 L 29 11 L 23 11 Z M 23 9 " clip-rule="nonzero"/></clipPath><clipPath id="a650cbb566"><path d="M 15.527344 5.738281 L 35.378906 -2.140625 L 40.566406 10.929688 L 20.710938 18.808594 Z M 15.527344 5.738281 " clip-rule="nonzero"/></clipPath><clipPath id="fbfc625a72"><path d="M 15.527344 5.738281 L 35.378906 -2.140625 L 40.566406 10.929688 L 20.710938 18.808594 Z M 15.527344 5.738281 " clip-rule="nonzero"/></clipPath><clipPath id="b6322c7795"><path d="M 20 9 L 22 9 L 22 12 L 20 12 Z M 20 9 " clip-rule="nonzero"/></clipPath><clipPath id="2d4f5c0f56"><path d="M 15.527344 5.738281 L 35.378906 -2.140625 L 40.566406 10.929688 L 20.710938 18.808594 Z M 15.527344 5.738281 " clip-rule="nonzero"/></clipPath><clipPath id="bbee80a849"><path d="M 15.527344 5.738281 L 35.378906 -2.140625 L 40.566406 10.929688 L 20.710938 18.808594 Z M 15.527344 5.738281 " clip-rule="nonzero"/></clipPath></defs><g fill="#1e2097" fill-opacity="1"><g transform="translate(1.567883, 25.441832)"><g><path d="M 17.265625 -16.421875 L 17.265625 0 L 13.453125 0 L 6.203125 -8.75 L 6.203125 0 L 1.640625 0 L 1.640625 -16.421875 L 5.46875 -16.421875 L 12.71875 -7.671875 L 12.71875 -16.421875 Z M 17.265625 -16.421875 "/></g></g></g><g fill="#1e2097" fill-opacity="1"><g transform="translate(18.700035, 25.441832)"><g><path d="M 14.4375 -6.34375 C 14.4375 -6.3125 14.410156 -5.941406 14.359375 -5.234375 L 5.109375 -5.234375 C 5.296875 -4.578125 5.660156 -4.070312 6.203125 -3.71875 C 6.742188 -3.363281 7.421875 -3.1875 8.234375 -3.1875 C 8.847656 -3.1875 9.375 -3.269531 9.8125 -3.4375 C 10.257812 -3.613281 10.710938 -3.898438 11.171875 -4.296875 L 13.515625 -1.859375 C 12.273438 -0.472656 10.46875 0.21875 8.09375 0.21875 C 6.601562 0.21875 5.296875 -0.0625 4.171875 -0.625 C 3.046875 -1.195312 2.175781 -1.984375 1.5625 -2.984375 C 0.945312 -3.984375 0.640625 -5.117188 0.640625 -6.390625 C 0.640625 -7.640625 0.9375 -8.757812 1.53125 -9.75 C 2.132812 -10.738281 2.96875 -11.515625 4.03125 -12.078125 C 5.09375 -12.648438 6.289062 -12.9375 7.625 -12.9375 C 8.894531 -12.9375 10.046875 -12.671875 11.078125 -12.140625 C 12.109375 -11.617188 12.925781 -10.859375 13.53125 -9.859375 C 14.132812 -8.867188 14.4375 -7.695312 14.4375 -6.34375 Z M 7.65625 -9.765625 C 6.96875 -9.765625 6.390625 -9.566406 5.921875 -9.171875 C 5.460938 -8.785156 5.171875 -8.253906 5.046875 -7.578125 L 10.25 -7.578125 C 10.125 -8.253906 9.832031 -8.785156 9.375 -9.171875 C 8.914062 -9.566406 8.34375 -9.765625 7.65625 -9.765625 Z M 7.65625 -9.765625 "/></g></g></g><g fill="#1e2097" fill-opacity="1"><g transform="translate(31.983248, 25.441832)"><g><path d="M 12.515625 -3.328125 L 12.515625 0 L 0.78125 0 L 0.78125 -2.625 L 6.671875 -9.40625 L 0.9375 -9.40625 L 0.9375 -12.71875 L 12.28125 -12.71875 L 12.28125 -10.109375 L 6.390625 -3.328125 Z M 12.515625 -3.328125 "/></g></g></g><g fill="#1e2097" fill-opacity="1"><g transform="translate(43.248111, 25.441832)"><g><path d="M 7.8125 0.21875 C 6.445312 0.21875 5.21875 -0.0625 4.125 -0.625 C 3.03125 -1.195312 2.175781 -1.984375 1.5625 -2.984375 C 0.945312 -3.984375 0.640625 -5.117188 0.640625 -6.390625 C 0.640625 -7.640625 0.945312 -8.765625 1.5625 -9.765625 C 2.175781 -10.765625 3.023438 -11.539062 4.109375 -12.09375 C 5.203125 -12.65625 6.4375 -12.9375 7.8125 -12.9375 C 9.1875 -12.9375 10.421875 -12.65625 11.515625 -12.09375 C 12.617188 -11.539062 13.472656 -10.765625 14.078125 -9.765625 C 14.691406 -8.773438 15 -7.648438 15 -6.390625 C 15 -5.117188 14.691406 -3.984375 14.078125 -2.984375 C 13.472656 -1.984375 12.617188 -1.195312 11.515625 -0.625 C 10.421875 -0.0625 9.1875 0.21875 7.8125 0.21875 Z M 7.8125 -3.328125 C 8.59375 -3.328125 9.234375 -3.597656 9.734375 -4.140625 C 10.234375 -4.679688 10.484375 -5.429688 10.484375 -6.390625 C 10.484375 -7.328125 10.234375 -8.0625 9.734375 -8.59375 C 9.234375 -9.125 8.59375 -9.390625 7.8125 -9.390625 C 7.03125 -9.390625 6.390625 -9.125 5.890625 -8.59375 C 5.390625 -8.0625 5.140625 -7.328125 5.140625 -6.390625 C 5.140625 -5.429688 5.390625 -4.679688 5.890625 -4.140625 C 6.390625 -3.597656 7.03125 -3.328125 7.8125 -3.328125 Z M 7.8125 -3.328125 "/></g></g></g><g fill="#1e2097" fill-opacity="1"><g transform="translate(57.094579, 25.441832)"><g><path d="M 9.71875 -12.9375 C 11.300781 -12.9375 12.570312 -12.460938 13.53125 -11.515625 C 14.488281 -10.578125 14.96875 -9.164062 14.96875 -7.28125 L 14.96875 0 L 10.515625 0 L 10.515625 -6.546875 C 10.515625 -8.285156 9.816406 -9.15625 8.421875 -9.15625 C 7.660156 -9.15625 7.046875 -8.90625 6.578125 -8.40625 C 6.117188 -7.90625 5.890625 -7.15625 5.890625 -6.15625 L 5.890625 0 L 1.4375 0 L 1.4375 -12.71875 L 5.671875 -12.71875 L 5.671875 -11.328125 C 6.179688 -11.847656 6.78125 -12.242188 7.46875 -12.515625 C 8.15625 -12.796875 8.90625 -12.9375 9.71875 -12.9375 Z M 9.71875 -12.9375 "/></g></g></g><g clip-path="url(#31bbc7f506)"><g clip-path="url(#e935b40610)"><g clip-path="url(#7a182b952c)"><path fill="#1b2123" d="M 32.179688 14.070312 C 29.792969 13.5625 27.035156 13.480469 24.417969 13.835938 C 23.113281 14.011719 21.878906 14.292969 20.742188 14.671875 L 20.164062 14.863281 L 20.847656 11.160156 C 20.027344 11.152344 18.351562 10.960938 17.324219 9.648438 C 16.824219 9.011719 16.621094 8.398438 16.707031 7.777344 C 16.816406 6.957031 17.609375 4.917969 20.234375 4.671875 C 22.21875 4.402344 24.328125 5.476562 24.757812 5.707031 C 24.949219 5.71875 25.128906 5.707031 25.3125 5.683594 C 26.046875 5.585938 26.691406 5.21875 27.441406 4.792969 C 28.515625 4.1875 29.847656 3.433594 31.984375 3.140625 C 32.246094 3.105469 32.519531 3.078125 32.792969 3.058594 C 35.203125 2.878906 36.757812 3.285156 37.539062 4.292969 C 37.882812 4.738281 38.5 6.3125 37.890625 8.078125 C 37.589844 9.023438 36.765625 9.683594 35.746094 10.210938 C 35.265625 10.460938 34.441406 10.792969 33.242188 10.957031 C 32.914062 11 32.628906 11.023438 32.417969 11.035156 L 32.644531 14.171875 Z M 32.179688 14.070312 " fill-opacity="1" fill-rule="nonzero"/></g></g></g><g clip-path="url(#f3bccead9f)"><g clip-path="url(#bcc7fc2e2b)"><g clip-path="url(#2455b2e5cc)"><path fill="#ffa800" d="M 37.394531 7.875 C 37.066406 8.90625 36.285156 9.554688 35.417969 9.96875 C 33.863281 10.707031 32.03125 10.679688 32.03125 10.679688 L 32.253906 13.714844 C 31.328125 13.519531 30.351562 13.382812 29.351562 13.3125 C 26.433594 13.105469 23.304688 13.4375 20.628906 14.324219 L 21.285156 10.78125 C 21.285156 10.78125 18.867188 11.03125 17.605469 9.421875 C 16.800781 8.398438 16.941406 6.914062 18.589844 5.625 C 20.851562 3.96875 24.660156 6.070312 24.660156 6.070312 C 27.160156 6.238281 28.160156 3.765625 32.820312 3.421875 C 37.464844 3.078125 38.316406 5.003906 37.394531 7.875 Z M 37.394531 7.875 " fill-opacity="1" fill-rule="nonzero"/></g></g></g><g clip-path="url(#359ffd2423)"><g clip-path="url(#8357c94a75)"><g clip-path="url(#cc881c5259)"><path fill="#af8030" d="M 21.066406 10.699219 C 21.066406 10.699219 19.433594 10.472656 18.765625 9.90625 C 18.082031 9.324219 18.027344 8.789062 18.175781 8.875 C 18.328125 8.960938 18.875 9.660156 19.414062 9.550781 C 19.957031 9.441406 19.292969 8.652344 19.765625 8.800781 C 20.234375 8.945312 20.71875 9.445312 20.953125 9.871094 C 21.183594 10.296875 21.066406 10.699219 21.066406 10.699219 Z M 21.066406 10.699219 " fill-opacity="1" fill-rule="nonzero"/></g></g></g><g clip-path="url(#c23a6d5263)"><g clip-path="url(#39969b8ac2)"><g clip-path="url(#192e8de6cb)"><path fill="#af8030" d="M 26.042969 6.222656 C 26.042969 6.222656 27.199219 6.21875 28.449219 5.53125 C 29.703125 4.84375 30.640625 4.535156 30.695312 4.929688 C 30.75 5.328125 30.328125 5.976562 28.855469 6.363281 C 27.378906 6.746094 26.042969 6.222656 26.042969 6.222656 Z M 26.042969 6.222656 " fill-opacity="1" fill-rule="nonzero"/></g></g></g><g clip-path="url(#7b4de7a6e9)"><g clip-path="url(#d115d6e4c6)"><g clip-path="url(#7c96814a30)"><path fill="#af8030" d="M 36.292969 9.023438 C 36.277344 9.042969 35.765625 9.609375 35.417969 9.96875 C 33.863281 10.707031 32.03125 10.679688 32.03125 10.679688 L 32.253906 13.714844 C 31.328125 13.519531 30.351562 13.382812 29.351562 13.3125 C 29.632812 13.152344 29.871094 12.871094 29.949219 12.386719 C 30.191406 10.945312 29.976562 10.082031 29.976562 10.082031 C 29.976562 10.082031 28.351562 11.097656 27.074219 11.074219 C 25.808594 11.046875 24.050781 9.527344 24.023438 9.503906 C 24.046875 9.503906 25.269531 9.628906 25.976562 9.484375 C 26.691406 9.339844 26.691406 9.339844 26.691406 9.339844 C 26.191406 8.605469 25.746094 7.90625 26.382812 7.792969 C 26.382812 7.792969 28.339844 9.5625 31.535156 8.578125 C 34.730469 7.597656 34.742188 6.253906 35.433594 7.003906 C 36.121094 7.753906 34.296875 9.445312 34.941406 9.503906 C 35.574219 9.566406 36.269531 9.042969 36.292969 9.023438 Z M 36.292969 9.023438 " fill-opacity="1" fill-rule="nonzero"/></g></g></g><g clip-path="url(#09f829d674)"><g clip-path="url(#4d762d3f15)"><g clip-path="url(#a41b1f3638)"><path fill="#1b2123" d="M 23.535156 5.519531 C 23.535156 5.519531 24.761719 6.296875 25.945312 6.589844 C 27.128906 6.882812 28.105469 6.394531 28.105469 6.394531 C 28.105469 6.394531 26.863281 6.414062 26.042969 6.222656 C 25.222656 6.03125 25.0625 5.953125 25.0625 5.953125 Z M 23.535156 5.519531 " fill-opacity="1" fill-rule="nonzero"/></g></g></g><g clip-path="url(#d89b8f8aa3)"><g clip-path="url(#f1b9475cb4)"><g clip-path="url(#59e83c990e)"><path fill="#1b2123" d="M 32.125 9.496094 C 32.015625 9.703125 32.042969 10.664062 32.085938 11.382812 L 32.417969 11.035156 C 32.371094 10.515625 32.34375 10.0625 32.34375 9.664062 Z M 32.125 9.496094 " fill-opacity="1" fill-rule="nonzero"/></g></g></g><g clip-path="url(#19e143e640)"><g clip-path="url(#7ebd93e4f4)"><g clip-path="url(#94276e0851)"><path fill="#1b2123" d="M 34.859375 8.046875 C 34.859375 8.046875 34.054688 9.320312 31.390625 9.519531 C 28.726562 9.71875 27.117188 8.9375 27.117188 8.9375 C 27.117188 8.9375 28.597656 10.03125 31.054688 10.015625 C 32.59375 9.96875 32.1875 9.980469 33.160156 9.640625 C 34.132812 9.300781 34.859375 8.046875 34.859375 8.046875 Z M 34.859375 8.046875 " fill-opacity="1" fill-rule="nonzero"/></g></g></g><g clip-path="url(#ebbeee7951)"><g clip-path="url(#a650cbb566)"><g clip-path="url(#fbfc625a72)"><path fill="#1b2123" d="M 28.160156 9.382812 C 27.125 10.136719 25.21875 10.324219 23.742188 9.695312 C 23.742188 9.695312 24.136719 10.214844 25.664062 10.417969 C 27.1875 10.621094 28.867188 9.570312 28.867188 9.570312 Z M 28.160156 9.382812 " fill-opacity="1" fill-rule="nonzero"/></g></g></g><g clip-path="url(#b6322c7795)"><g clip-path="url(#2d4f5c0f56)"><g clip-path="url(#bbee80a849)"><path fill="#1b2123" d="M 21.160156 11.234375 C 21.203125 11.136719 21.339844 10.816406 21.296875 10.488281 C 21.25 10.160156 20.277344 9.355469 20.277344 9.355469 C 20.277344 9.355469 20.792969 10.074219 20.894531 10.390625 C 20.996094 10.710938 20.847656 11.160156 20.847656 11.160156 Z M 21.160156 11.234375 " fill-opacity="1" fill-rule="nonzero"/></g></g></g></svg>